<svg xmlns="http://www.w3.org/2000/svg" enable-background="new 0 0 24 24" viewBox="0 0 24 24" id="huawei">
  <polygon fill="#F31001" points="14.418 18.501 14.427 18.501 14.428 18.501"></polygon>
  <path fill="#F31001" d="M5.758,20.941c0.955-0.249,3.146-1.773,3.862-2.29l0.04-0.089v0.01l-0.1-0.079L2.213,18.75C3.01,20.174,4.353,21.269,5.758,20.941L5.758,20.941z"></path>
  <path fill="#D40E01" d="M9.65,18.563L3.15,20c0.609,0.604,1.337,0.999,2.101,0.999c0.167,0,0.336-0.019,0.506-0.059c0.955-0.249,3.146-1.773,3.862-2.29l0.037-0.082L9.65,18.563L9.65,18.563z M9.66,18.561l-0.003,0.007l0.003,0.003V18.561L9.66,18.561z"></path>
  <path fill="#F31001" d="M2.781,17.645c0.696,0.299,1.394,0.309,1.394,0.309c0.119,0.02,4.38,0,5.515,0l0.08-0.05v-0.06l-0.031-0.05c-3.226-2.18-9.478-5.515-9.478-5.515c-0.148,0.458-0.198,0.896-0.209,1.294v0.07c0,1.065,0.399,1.812,0.399,1.812C1.248,17.137,2.781,17.645,2.781,17.645L2.781,17.645z"></path>
  <path fill="#D40E01" d="M0.13,14.458c0.116,0.612,0.322,0.997,0.322,0.997c0.797,1.682,2.33,2.19,2.33,2.19c0.696,0.299,1.394,0.309,1.394,0.309c0.04,0.007,0.54,0.009,1.23,0.009c1.382,0,3.528-0.009,4.284-0.009l0.08-0.05L0.13,14.458L0.13,14.458z"></path>
  <path fill="#F31001" d="M2.979,12.528c1.822,1.781,6.233,4.021,7.268,4.529l0.1-0.01l0.019-0.04v-0.039C7.539,10.806,3.707,6.166,3.707,6.166S1.865,7.929,1.766,9.79v0.348C1.845,11.642,2.979,12.528,2.979,12.528L2.979,12.528z"></path>
  <path fill="#D40E01" d="M2.375,7.91c-0.317,0.564-0.574,1.215-0.61,1.88v0.348c0.079,1.503,1.214,2.39,1.214,2.39c1.822,1.781,6.233,4.021,7.268,4.529l0.1-0.01L2.375,7.91L2.375,7.91z"></path>
  <path fill="#F31001" d="M9.072,3.23C7.641,3.604,6.589,4.852,6.514,6.358v0.008v0.408c0.03,0.597,0.159,1.045,0.159,1.045c0.657,2.887,3.843,7.616,4.53,8.611l0.1,0.03l0.059-0.092V16.36C12.417,5.807,10.257,3,10.257,3C9.938,3.02,9.072,3.229,9.072,3.23L9.072,3.23L9.072,3.23z"></path>
  <path fill="#D40E01" d="M7.99,3.724C7.136,4.31,6.568,5.266,6.514,6.358v0.008v0.408c0.03,0.597,0.159,1.045,0.159,1.045c0.657,2.887,3.843,7.616,4.53,8.611l0.1,0.03l0.014-0.022l-0.114-0.009L7.99,3.724L7.99,3.724z"></path>
  <path fill="#F31001" d="M14.906,3.22c0,0-0.567-0.139-1.165-0.219c0,0-2.17,2.798-1.114,13.37l0.06,0.079l0.099-0.03c0.716-1.026,3.882-5.734,4.529-8.601c0,0,0.358-1.394,0.02-2.329C17.335,5.49,16.848,3.698,14.906,3.22L14.906,3.22z"></path>
  <path fill="#D40E01" d="M13.741,3.001c0,0-2.17,2.798-1.114,13.37l0.06,0.079l0.099-0.03L15.659,3.5c-0.223-0.115-0.473-0.211-0.753-0.28C14.906,3.22,14.339,3.081,13.741,3.001L13.741,3.001z"></path>
  <path fill="#F31001" d="M13.672,17.048l0.04,0.01h0.06c1.055-0.527,5.435-2.757,7.247-4.52c0,0,1.145-0.926,1.205-2.409c0.139-2.051-1.932-3.952-1.932-3.963c0,0-3.833,4.64-6.641,10.752L13.672,17.048L13.672,17.048z"></path>
  <path fill="#D40E01" d="M20.292,6.166c0,0-3.833,4.64-6.641,10.752l8.15-8.691C21.231,7.038,20.292,6.173,20.292,6.166L20.292,6.166z"></path>
  <path fill="#F31001" d="M23.736,12.259c0,0-6.252,3.355-9.477,5.525l-0.029,0.11l0.069,0.059c1.155,0,5.535,0,5.644-0.02c0,0,0.568-0.02,1.265-0.288c0,0,1.553-0.498,2.359-2.26C23.567,15.385,24.294,13.942,23.736,12.259L23.736,12.259z"></path>
  <path fill="#D40E01" d="M23.736,12.259c0,0-6.252,3.355-9.477,5.525l-0.029,0.11l0.069,0.059l9.502-3.236C23.95,14.137,24.061,13.239,23.736,12.259L23.736,12.259z"></path>
  <path fill="#F31001" d="M14.369,18.65c0.696,0.508,2.837,1.991,3.863,2.29c0,0,0.159,0.05,0.428,0.06h0.14c0.687-0.02,1.892-0.369,2.986-2.25l-7.358-0.249l-0.088,0.049L14.369,18.65L14.369,18.65z"></path>
  <path fill="#D40E01" d="M14.427,18.501l6.066,1.821c0.423-0.339,0.866-0.839,1.293-1.572L14.427,18.501L14.427,18.501z"></path>
</svg>
